<?xml version="1.0" standalone="no"?>
<!DOCTYPE svg PUBLIC "-//W3C//DTD SVG 20010904//EN"
 "http://www.w3.org/TR/2001/REC-SVG-20010904/DTD/svg10.dtd">
<svg version="1.0" xmlns="http://www.w3.org/2000/svg"
 width="300.000000pt" height="312.000000pt" viewBox="0 0 300.000000 312.000000"
 preserveAspectRatio="xMidYMid meet">
<metadata>
Created by potrace 1.10, written by Peter Selinger 2001-2011
</metadata>
<g transform="translate(0.000000,312.000000) scale(0.050000,-0.050000)"
fill="#000000" stroke="none">
<path d="M2351 5782 c-6 -10 0 -22 13 -27 16 -5 10 -29 -20 -79 -46 -74 -59
-176 -23 -176 12 0 15 10 7 23 -8 14 -5 18 7 10 12 -7 26 2 31 22 8 28 10 27
12 -7 3 -55 -66 -117 -111 -100 -23 9 -52 -6 -89 -47 -38 -42 -66 -57 -90 -47
-33 12 -33 14 0 25 33 12 33 16 -5 62 -39 48 -40 48 -81 11 -51 -47 -53 -67
-7 -76 33 -7 33 -8 0 -21 -24 -9 -54 5 -95 45 -36 35 -72 54 -91 47 -17 -7
-48 4 -70 24 -48 44 -53 11 -16 -114 20 -64 36 -81 98 -100 46 -13 83 -41 97
-70 27 -61 0 -60 -74 3 -98 82 -130 66 -73 -37 l49 -86 -51 -44 c-67 -59 -95
-137 -77 -223 19 -95 22 -480 3 -480 -8 0 -15 -9 -15 -20 0 -11 14 -20 30 -20
46 0 37 -45 -40 -191 -85 -164 -85 -164 -6 -198 57 -24 64 -35 67 -122 3 -57
16 -105 33 -118 16 -11 35 -57 42 -101 24 -148 99 -157 404 -48 133 48 152 51
110 18 -27 -21 -57 -39 -65 -40 -28 0 -15 -35 56 -153 91 -152 149 -341 149
-489 0 -65 7 -118 15 -118 8 0 59 14 113 30 54 17 131 29 170 28 l72 -1 -58
-18 c-32 -9 -64 -25 -70 -35 -32 -46 -276 -81 -430 -60 -111 14 -202 13 -328
-4 -96 -13 -264 -31 -375 -39 -120 -10 -240 -32 -300 -56 -54 -22 -136 -50
-181 -63 -121 -32 -229 -121 -337 -275 -54 -75 -129 -171 -168 -212 l-71 -75
52 0 c29 0 135 32 236 70 233 89 267 88 147 -3 -54 -40 -147 -119 -208 -175
-61 -56 -128 -112 -150 -125 -127 -74 215 -88 406 -16 150 57 442 55 501 -4
80 -80 175 -130 369 -194 303 -101 1315 -581 1315 -624 0 -39 -345 88 -491
181 -62 40 -117 68 -122 64 -31 -32 381 -333 538 -392 360 -137 655 -328 655
-425 0 -71 39 -74 148 -12 110 63 148 124 205 327 29 102 88 243 138 330 255
436 241 790 -43 1114 -107 122 -134 125 -59 6 142 -225 175 -463 92 -656 -58
-134 -108 -182 -86 -83 27 119 16 461 -17 536 -30 68 -30 67 -30 -100 0 -162
-71 -399 -120 -399 -24 0 6 447 37 534 33 92 18 113 -59 84 -66 -24 -67 36 -2
142 85 139 124 322 105 490 -41 366 62 596 338 757 255 149 653 70 802 -159
19 -28 39 -47 45 -41 19 20 -104 170 -180 220 -263 171 -705 100 -918 -147
l-84 -98 -27 102 c-40 156 -128 294 -321 499 -306 326 -326 377 -185 467 174
109 171 190 -13 315 -55 37 -85 74 -93 115 -22 110 -111 233 -232 321 l-118
86 55 81 c30 45 61 92 69 105 21 37 -71 7 -122 -40 -68 -61 -108 -62 -80 -1
12 26 33 48 47 48 74 0 125 48 148 137 13 51 28 106 33 123 5 17 -11 10 -41
-18 -29 -27 -63 -42 -81 -35 -19 7 -54 -11 -91 -47 -41 -40 -71 -54 -95 -45
-33 13 -33 14 0 21 46 9 44 29 -7 76 -41 37 -42 37 -80 -9 -38 -48 -34 -95 6
-70 13 8 16 4 8 -10 -22 -35 -40 -29 -108 37 -39 36 -75 55 -94 47 -42 -16
-111 49 -108 101 2 34 4 35 12 7 5 -20 19 -29 31 -22 12 8 15 4 7 -10 -8 -13
-5 -23 7 -23 36 0 23 121 -19 175 -42 52 -55 117 -20 95 11 -7 20 -3 20 9 0
11 -14 21 -31 21 -26 0 -29 -16 -18 -90 12 -78 9 -89 -19 -78 -21 8 -32 36
-32 80 0 92 -36 87 -44 -5 -3 -41 -18 -78 -34 -83 -22 -7 -25 9 -13 83 12 86
-7 125 -38 75z m-132 -581 c17 -10 26 -22 20 -25 -85 -55 -108 -43 -81 39 4
10 33 4 61 -14z m553 -14 c-7 -17 -1 -47 12 -65 20 -25 17 -25 -16 3 -23 19
-52 35 -65 35 -31 0 -30 34 2 47 52 21 79 13 67 -20z m98 -287 c226 -179 247
-351 79 -639 -129 -220 -143 -442 -40 -651 33 -66 63 -129 68 -140 25 -54 -66
49 -136 153 -150 226 -151 416 -2 701 152 293 146 386 -37 583 -96 104 -67
101 68 -7z m166 -37 c103 -77 173 -291 108 -331 -9 -5 -13 16 -8 49 12 84 -73
216 -205 318 -61 47 -111 90 -111 95 0 12 131 -68 216 -131z m-796 36 c175
-89 260 -242 330 -596 26 -128 53 -249 61 -268 7 -19 8 -35 2 -35 -24 0 -71
116 -133 329 -99 341 -191 495 -343 572 -42 22 -77 45 -77 51 0 15 76 -10 160
-53z m1000 -285 c-1 -106 -58 -233 -168 -374 -102 -130 -146 -211 -170 -314
l-18 -76 -2 81 c-3 121 48 247 149 370 114 138 169 251 169 346 0 45 8 70 20
63 11 -7 20 -50 20 -96z m260 -116 c155 -92 149 -121 -58 -265 -200 -141 -353
-309 -390 -429 l-29 -94 -2 91 c-2 129 75 270 248 455 158 168 175 196 148
249 -24 46 -3 44 83 -7z m-250 -130 c-17 -42 -78 -149 -135 -237 -57 -89 -120
-206 -139 -261 -34 -98 -35 -99 -35 -30 -1 83 84 271 199 440 46 67 93 151
106 186 20 55 24 58 30 21 3 -24 -8 -77 -26 -119z m78 -339 c-109 -211 -51
-431 241 -918 301 -501 351 -718 226 -974 -77 -157 -124 -192 -72 -53 105 273
34 532 -288 1067 -315 523 -343 693 -151 902 101 108 109 103 44 -24z m302
-281 c18 -38 29 -81 25 -94 -9 -24 -58 57 -96 159 -30 79 27 26 71 -65z m8
-395 c289 -442 371 -673 321 -906 l-25 -117 -24 160 c-38 255 -117 448 -303
736 -145 225 -210 370 -220 492 l-10 112 50 -115 c27 -63 121 -227 211 -362z
m120 266 c35 -116 29 -220 -9 -170 -16 21 -29 69 -29 105 0 37 -13 100 -30
139 -40 95 -37 108 8 48 21 -27 48 -82 60 -122z m122 -148 c24 -116 8 -276
-22 -228 -17 27 -26 337 -9 337 4 0 18 -49 31 -109z m-772 -381 c184 -226 261
-368 110 -202 -177 194 -312 371 -377 493 -87 164 -76 166 38 7 54 -76 157
-210 229 -298z m18 173 c113 -122 121 -148 18 -67 -82 66 -264 255 -264 275 0
22 147 -103 246 -208z m872 -32 c27 -107 28 -210 3 -250 -22 -35 -53 60 -35
107 6 15 4 78 -4 139 -18 130 3 133 36 4z m-497 -460 c23 -64 52 -194 64 -288
l24 -173 21 120 c18 98 24 111 36 70 23 -85 15 -168 -23 -239 -61 -113 -74
-94 -99 144 -14 124 -41 291 -61 371 -43 168 -22 166 38 -5z m-507 -115 c36
-35 72 -57 79 -49 8 7 4 24 -9 37 -41 41 -26 64 15 27 44 -39 71 -114 92 -251
11 -67 33 -108 87 -159 39 -38 61 -62 47 -54 -42 26 -28 -16 34 -98 81 -107
76 -123 -16 -49 -79 63 -223 104 -223 63 0 -12 27 -36 59 -53 33 -17 55 -41
50 -55 -5 -14 26 -45 69 -70 95 -53 210 -189 252 -297 l31 -78 -44 60 c-187
255 -508 432 -637 351 -27 -18 79 -81 136 -81 27 0 126 -112 111 -126 -41 -42
-290 28 -482 136 -85 47 -90 39 -27 -40 30 -37 30 -38 -4 -12 -29 23 -50 23
-115 4 -101 -30 -102 -62 -1 -62 42 0 107 -6 145 -13 63 -13 65 -12 37 23 -20
25 -4 19 50 -16 44 -30 139 -82 210 -116 112 -55 124 -65 84 -76 -64 -17 -56
-44 31 -103 73 -50 75 -54 81 -189 6 -127 13 -148 85 -241 96 -125 100 -147
14 -81 -70 53 -316 170 -550 262 -136 53 -183 90 -115 90 17 0 30 7 30 17 0 9
-47 13 -105 8 -129 -10 -253 28 -180 56 25 10 45 33 45 51 0 32 -13 32 -110
-1 -36 -13 -36 -12 -5 8 59 38 41 64 -35 50 -125 -24 -200 11 -93 43 106 32
139 22 589 -176 175 -77 323 -134 329 -127 28 28 -94 116 -183 133 -51 9 -131
34 -178 56 l-84 39 85 1 c122 3 106 30 -68 113 -530 251 -868 326 -1317 292
-44 -3 -147 2 -230 11 l-150 16 84 25 c121 37 404 69 486 56 57 -10 63 -8 33
10 -20 13 -78 30 -130 39 l-93 15 113 3 c90 2 138 -11 243 -64 132 -66 143
-63 68 21 -23 25 -35 45 -28 45 46 0 332 -127 611 -271 180 -93 348 -169 374
-169 33 0 44 -9 37 -28 -7 -18 7 -34 36 -43 25 -8 91 -45 146 -82 116 -78 178
-91 118 -25 -21 23 -72 59 -113 81 -81 41 -99 68 -35 51 50 -13 55 36 5 56
-19 8 -94 21 -166 29 -110 13 -167 36 -340 136 -249 143 -446 241 -609 305
-163 63 -176 80 -59 80 83 0 125 -16 265 -100 354 -213 225 -67 -168 190 -321
210 -389 273 -219 202 37 -16 99 -63 137 -105 39 -42 78 -70 86 -62 8 8 -3 35
-26 60 -70 78 -81 110 -25 70 27 -19 139 -95 249 -168 224 -149 285 -198 150
-121 -216 124 -245 113 -70 -25 72 -56 150 -133 175 -170 62 -96 107 -112 225
-82 l98 25 -94 55 c-97 56 -129 89 -49 50 25 -12 -2 20 -60 71 -121 108 -131
135 -40 109 116 -34 150 -21 58 21 -48 22 -103 40 -122 40 -77 0 -172 45 -130
62 38 15 38 15 -1 17 -22 1 -53 11 -70 23 -25 18 -23 20 8 9 21 -6 54 -7 75 0
65 21 19 49 -80 49 -71 0 -119 15 -189 60 -122 77 -119 86 16 38 154 -54 211
-47 146 18 -19 19 -10 24 37 24 82 0 216 -100 267 -200 46 -90 62 -102 45 -35
l-11 45 48 -39 c89 -72 305 -301 301 -318 -8 -31 288 -209 310 -187 5 6 -54
44 -132 85 -153 80 -170 103 -86 113 54 7 53 8 -24 42 -89 40 -145 85 -175
141 -19 36 -18 37 26 6 26 -18 63 -33 82 -33 69 0 12 56 -165 160 -183 107
-213 139 -134 141 25 1 3 13 -49 27 -187 50 -202 125 -22 104 165 -19 326
-115 326 -194 0 -44 33 -67 47 -33 14 33 70 -36 86 -105 23 -97 227 -271 302
-256 24 4 -1 27 -76 69 -179 101 -219 184 -58 121 123 -48 88 3 -50 75 -139
73 -217 163 -119 139 94 -23 11 55 -143 135 -145 75 -147 97 -9 97 l98 0 201
-229 c111 -126 211 -235 223 -242 48 -30 33 10 -34 88 -39 45 -61 83 -50 83
12 0 22 9 22 20 0 11 -17 20 -37 20 -21 0 -62 25 -93 55 l-55 55 64 6 c74 8
73 51 -1 60 -104 12 -131 25 -174 83 l-45 61 74 0 c57 0 91 -15 141 -64z m384
-193 l-2 -73 -18 76 c-10 42 -27 96 -39 120 -20 42 -19 41 20 -3 26 -31 40
-73 39 -120z m-1883 -32 c124 -58 134 -74 30 -49 -97 23 -413 23 -510 0 -96
-23 -79 9 32 60 123 55 315 51 448 -11z m-345 -131 c-7 -11 -55 -19 -106 -17
l-94 3 80 14 c121 22 133 22 120 0z m390 -9 l70 -26 -85 -23 c-79 -22 -245 -2
-245 29 0 45 160 57 260 20z m-437 -475 c-70 -34 -169 -66 -220 -72 l-93 -10
63 53 c46 38 87 54 150 55 48 1 110 9 137 18 101 32 87 15 -37 -44z m2826 -11
c-15 -41 -28 -95 -28 -120 -1 -25 -10 -45 -22 -45 -24 0 -13 -76 43 -303 21
-85 38 -165 38 -180 0 -57 -60 65 -87 176 l-29 117 -2 -85 c-1 -47 27 -172 62
-280 110 -337 80 -671 -46 -511 -26 33 -25 34 7 8 78 -61 53 0 -33 83 -73 70
-92 102 -92 154 l0 65 38 -47 c44 -54 83 -35 46 24 -41 65 -26 73 17 9 22 -33
39 -82 37 -110 -4 -82 1 -103 22 -90 46 29 -16 530 -63 507 -19 -10 -99 67
-118 113 -16 40 -16 40 -18 -1 0 -22 19 -78 44 -124 25 -45 70 -128 100 -184
80 -145 54 -124 -42 34 -104 172 -144 286 -140 403 l3 92 14 -80 14 -80 3 82
c4 113 87 331 115 303 16 -16 -19 -93 -37 -82 -14 9 -17 -16 -10 -72 14 -103
55 -158 55 -74 0 30 14 88 31 128 20 48 23 77 10 81 -23 8 3 70 55 129 42 48
43 45 13 -40z m-2189 18 c0 -17 -182 -123 -211 -123 -8 0 1 18 21 40 48 53 27
70 -53 42 -92 -32 -310 5 -227 39 53 22 470 24 470 2z m253 -54 c97 -28 184
-59 194 -68 26 -26 -191 -44 -267 -21 -38 11 -99 20 -134 20 -76 0 -104 32
-45 50 25 8 38 25 31 42 -15 39 17 36 221 -23z m1512 -182 c61 -79 150 -267
127 -267 -4 0 -39 53 -79 117 -40 65 -115 166 -168 225 -93 105 -94 106 -25
64 39 -23 104 -86 145 -139z m-1066 23 c79 -40 84 -46 46 -58 -24 -8 -67 -2
-99 14 -31 16 -82 35 -113 42 -47 11 -52 19 -32 43 28 34 65 26 198 -41z m911
-135 c140 -200 200 -275 206 -256 4 12 -25 70 -64 130 -178 267 -91 211 101
-65 l132 -191 -13 -111 c-9 -71 -27 -123 -53 -147 -21 -20 -39 -45 -39 -55 0
-24 -226 89 -260 130 -37 44 -7 37 76 -20 40 -27 82 -50 92 -50 32 0 -68 95
-181 173 -59 41 -107 78 -107 83 0 12 93 -49 189 -124 56 -44 75 -51 65 -26
-10 27 3 23 57 -18 38 -29 75 -48 82 -42 29 29 -19 72 -164 145 -159 81 -269
166 -269 209 0 13 28 0 62 -29 80 -67 178 -118 195 -101 7 7 -13 32 -45 55
-31 23 -70 73 -86 112 -20 48 -34 62 -45 44 -17 -28 -81 46 -81 93 0 48 30 26
130 -95 92 -112 230 -237 230 -209 0 7 -46 61 -102 120 -56 59 -96 117 -89
129 8 12 -10 30 -38 41 -28 10 -51 24 -51 31 0 6 8 6 19 0 10 -6 23 -4 29 6 7
10 -6 23 -28 29 -22 6 -40 20 -40 32 0 38 57 24 90 -23z m419 -782 c29 -42 41
-69 28 -61 -17 10 -20 4 -10 -22 12 -31 10 -32 -18 -9 -45 37 -93 136 -78 161
15 25 13 26 78 -69z"/>
<path d="M3740 1432 c0 -73 55 -212 84 -212 16 0 12 30 -27 184 -25 100 -57
116 -57 28z"/>
<path d="M4573 3392 c-446 -166 -552 -659 -260 -1206 75 -140 113 -236 122
-310 12 -105 13 -106 28 -36 19 88 -7 242 -76 438 -95 273 -85 561 23 662 l51
48 -28 -69 c-43 -102 -61 -249 -36 -292 18 -31 22 -23 22 44 1 110 76 254 145
277 58 20 40 32 321 -211 53 -45 128 -138 169 -205 40 -67 100 -158 133 -202
34 -44 63 -84 67 -88 3 -5 12 -2 20 6 8 8 5 20 -6 28 -28 18 -240 381 -257
439 -11 37 -3 49 43 65 31 11 73 30 93 41 53 31 58 15 23 -68 -29 -70 -23
-173 9 -173 9 0 30 70 47 155 l32 155 -68 64 c-37 36 -78 83 -90 105 -23 44
-80 56 -80 18 0 -12 15 -33 33 -47 25 -18 29 -41 19 -96 -19 -102 -41 -105
-45 -7 -2 46 -9 112 -17 148 -18 79 30 91 85 21 19 -24 67 -76 105 -115 l70
-71 6 56 c30 259 -419 532 -703 426z m336 -536 c12 -12 -24 3 -79 34 -150 85
-170 98 -170 113 0 16 219 -112 249 -147z"/>
</g>
</svg>
